<?xml version="1.0" encoding="UTF-8"?>
<!DOCTYPE svg PUBLIC "-//W3C//DTD SVG 1.1//EN" "http://www.w3.org/Graphics/SVG/1.1/DTD/svg11.dtd">
<!-- Creator: CorelDRAW -->
<svg xmlns="http://www.w3.org/2000/svg" xml:space="preserve" width="278px" height="60px" version="1.1" shape-rendering="geometricPrecision" text-rendering="geometricPrecision" image-rendering="optimizeQuality" fill-rule="evenodd" clip-rule="evenodd"
viewBox="0 0 340.47 73.24"
 xmlns:xlink="http://www.w3.org/1999/xlink"
 xmlns:xodm="http://www.corel.com/coreldraw/odm/2003">
 <g id="Camada_x0020_1">
  <metadata id="CorelCorpID_0Corel-Layer"/>
  <path fill="#D62626" fill-rule="nonzero" fill-opacity="0.701961" d="M217.2 73.24l0 -67.9 24.13 0c4.52,0 7.93,1.03 10.23,3.1 2.37,1.99 3.56,4.78 3.56,8.39l0 11.72c0,3.06 -0.38,5.93 -1.15,8.61 -0.77,2.61 -2.14,4.71 -4.14,6.32 -1.99,1.61 -4.86,2.42 -8.61,2.42l-10.11 0 0 27.34 -13.91 0zm13.91 -34.7l5.17 0c1.83,0 3.21,-0.88 4.13,-2.64 0.92,-1.76 1.38,-4.67 1.38,-8.73l0 -4.6c0,-3.6 -0.38,-6.17 -1.15,-7.7 -0.76,-1.53 -1.87,-2.29 -3.33,-2.29l-6.2 0 0 25.96zm31.2 34.7l0 -67.9 23.78 0c3.22,0 5.86,0.46 7.93,1.38 2.15,0.91 3.72,2.33 4.71,4.25 1.08,1.83 1.61,4.17 1.61,7l0 40.68c0,3.75 -0.65,6.7 -1.95,8.85 -1.3,2.14 -3.18,3.64 -5.63,4.48 -2.38,0.84 -5.21,1.26 -8.5,1.26l-21.95 0zm13.9 -6.89l5.86 0c1.53,0 2.72,-0.46 3.56,-1.38 0.92,-0.92 1.38,-2.64 1.38,-5.17l0 -40.33c0,-2.53 -0.46,-4.25 -1.38,-5.17 -0.84,-0.92 -2.03,-1.38 -3.56,-1.38l-5.86 0 0 53.43zm33 6.89l0 -67.9 31.26 0 0 9.42 -17.35 0 0 18.15 14.71 0 0 10.46 -14.71 0 0 29.87 -13.91 0z"/>
  <path fill="#B2B2B2" fill-rule="nonzero" d="M19.03 50.85l-6.37 0 0 21.55 -12.66 0 0 -71.63 18.77 0c5.97,0 10.62,1.62 13.95,4.85 3.34,3.24 5.01,7.85 5.01,13.84l0 12.08c0,5.86 -1.77,10.56 -5.3,14.06 -3.54,3.5 -8,5.25 -13.4,5.25zm-1.29 -10.81c2.21,0 3.95,-0.75 5.22,-2.24 1.25,-1.49 1.88,-3.56 1.88,-6.2l0 -11.88c0,-2.61 -0.63,-4.62 -1.88,-6.01 -1.27,-1.39 -3.01,-2.1 -5.22,-2.1l-5.08 0 0 28.43 5.08 0z"/>
  <polygon id="_1" fill="#B2B2B2" fill-rule="nonzero" points="74.33,52 76.4,36.53 83,0.77 101.39,0.77 101.39,72.4 89.37,72.4 89.5,42.67 89.95,22.58 89.14,22.58 80.33,72.4 66.77,72.4 58.71,22.58 57.89,22.58 58.27,42.6 58.27,72.4 46.31,72.4 46.31,0.77 65.08,0.77 71.3,36.53 73.52,52 "/>
  <path id="_2" fill="#B2B2B2" fill-rule="nonzero" d="M151.65 72.4l-12.72 0 -5.29 -24.88 -8.27 0 0 24.88 -12.66 0 0 -71.63 18.96 0c5.82,0 10.34,1.57 13.56,4.7 3.23,3.13 4.83,7.69 4.83,13.7l0 8.88c0,5.98 -1.88,10.72 -5.66,14.25l7.25 30.1zm-26.13 -35.47l4 0c5.11,0 7.67,-2.78 7.67,-8.36l0 -8.62c0,-2.74 -0.66,-4.81 -1.96,-6.23 -1.32,-1.4 -3.21,-2.11 -5.71,-2.11l-4 0 0 25.32z"/>
  <path id="_3" fill="#B2B2B2" fill-rule="nonzero" d="M177.68 0c6.17,0 10.91,1.79 14.21,5.38 3.31,3.59 4.97,8.62 4.97,15.09l0 32.23c0,6.52 -1.67,11.57 -5,15.16 -3.34,3.59 -8.06,5.38 -14.18,5.38 -6.11,0 -10.8,-1.79 -14.06,-5.38 -3.26,-3.59 -4.89,-8.64 -4.89,-15.16l0 -32.23c0,-6.47 1.64,-11.5 4.93,-15.09 3.27,-3.59 7.96,-5.38 14.02,-5.38zm6.37 54.88l0 -36.52c0,-2.23 -0.56,-4.01 -1.67,-5.36 -1.11,-1.34 -2.6,-2.01 -4.47,-2.01 -1.93,0 -3.48,0.67 -4.64,2.01 -1.15,1.35 -1.73,3.13 -1.73,5.36l0 36.52c0,2.23 0.58,4.01 1.73,5.36 1.16,1.34 2.68,2.01 4.56,2.01 1.87,0 3.38,-0.67 4.51,-2.01 1.14,-1.35 1.71,-3.13 1.71,-5.36z"/>
 </g>
</svg>
