<?xml version="1.0" encoding="UTF-8"?>
<!DOCTYPE svg PUBLIC "-//W3C//DTD SVG 1.1//EN" "http://www.w3.org/Graphics/SVG/1.1/DTD/svg11.dtd">
<!-- Creator: CorelDRAW -->
<svg xmlns="http://www.w3.org/2000/svg" xml:space="preserve" width="366px" height="69px" version="1.1" shape-rendering="geometricPrecision" text-rendering="geometricPrecision" image-rendering="optimizeQuality" fill-rule="evenodd" clip-rule="evenodd"
viewBox="0 0 368.31 68.95"
 xmlns:xlink="http://www.w3.org/1999/xlink"
 xmlns:xodm="http://www.corel.com/coreldraw/odm/2003">
 <g id="Camada_x0020_1">
  <metadata id="CorelCorpID_0Corel-Layer"/>
  <g id="_2445857182272">
   <path fill="#E36767" fill-rule="nonzero" d="M256 66.8l0 -61.87 21.99 0c4.11,0 7.22,0.94 9.31,2.82 2.17,1.82 3.25,4.37 3.25,7.65l0 10.67c0,2.8 -0.35,5.41 -1.05,7.86 -0.7,2.37 -1.95,4.29 -3.77,5.75 -1.81,1.47 -4.43,2.2 -7.85,2.2l-9.21 0 0 24.92 -12.67 0zm12.67 -31.62l4.71 0c1.67,0 2.93,-0.8 3.77,-2.41 0.84,-1.6 1.25,-4.25 1.25,-7.95l0 -4.19c0,-3.28 -0.35,-5.62 -1.04,-7.01 -0.7,-1.4 -1.71,-2.1 -3.04,-2.1l-5.65 0 0 23.66zm28.43 31.62l0 -61.87 21.67 0c2.93,0 5.34,0.41 7.22,1.25 1.96,0.84 3.39,2.13 4.3,3.88 0.97,1.67 1.46,3.8 1.46,6.38l0 37.06c0,3.42 -0.59,6.11 -1.78,8.07 -1.18,1.95 -2.89,3.31 -5.13,4.08 -2.16,0.77 -4.74,1.15 -7.74,1.15l-20 0zm12.67 -6.28l5.34 0c1.39,0 2.48,-0.42 3.24,-1.26 0.84,-0.84 1.26,-2.41 1.26,-4.71l0 -36.75c0,-2.3 -0.42,-3.87 -1.26,-4.71 -0.76,-0.84 -1.85,-1.25 -3.24,-1.25l-5.34 0 0 48.68zm30.07 6.28l0 -61.87 28.47 0 0 8.58 -15.81 0 0 16.54 13.4 0 0 9.53 -13.4 0 0 27.22 -12.66 0z"/>
   <path fill="#FEFEFE" fill-rule="nonzero" d="M20.91 1.61c7.16,0 12.79,1.91 16.88,5.73 4.09,3.82 6.13,9.11 6.13,15.88 0,6.96 -2.03,12.41 -6.08,16.33 -4.05,3.92 -9.66,5.88 -16.83,5.88l-9.35 0 0 21.91 -11.66 0 0 -65.73 20.91 0zm0.1 33.06c7.43,0 11.15,-3.81 11.15,-11.45 0,-7.17 -3.75,-10.76 -11.25,-10.76l-9.25 0 0 22.21 9.35 0zm78.09 -33.06l11.86 0 0 65.73 -11.26 0 0 -37 -13.11 37 -8.7 0 -13.77 -38.38 0 38.38 -11.15 0 0 -65.73 11.15 0 17.44 46.78 17.54 -46.78zm56.18 65.73l-11.59 -24.32 -9.01 0 0 24.32 -11.66 0 0 -65.73 21.11 0c7.23,0 12.88,1.79 16.93,5.37 4.05,3.59 6.08,8.6 6.08,15.03 0,9.18 -3.72,15.45 -11.15,18.8l12.76 26.53 -13.47 0zm-20.6 -54.88l0 19.8 9.55 0c7.43,0 11.15,-3.41 11.15,-10.25 0,-6.36 -3.75,-9.55 -11.25,-9.55l-9.45 0zm68.14 56.49c-8.71,0 -15.46,-3.02 -20.25,-9.05 -4.79,-6.03 -7.19,-14.51 -7.19,-25.43 0,-10.92 2.4,-19.39 7.19,-25.42 4.79,-6.03 11.54,-9.05 20.25,-9.05 8.44,0 15.01,3.02 19.7,9.05 4.69,6.03 7.04,14.5 7.04,25.42 0,10.92 -2.35,19.4 -7.04,25.43 -4.69,6.03 -11.26,9.05 -19.7,9.05zm0 -10.86c10.05,0 15.08,-7.87 15.08,-23.62 0,-15.74 -5.03,-23.62 -15.08,-23.62 -10.52,0 -15.78,7.88 -15.78,23.62 0,15.75 5.26,23.62 15.78,23.62z"/>
  </g>
 </g>
</svg>
